<?xml version="1.0" encoding="utf-8"?>
<!-- Generator: Adobe Illustrator 16.0.0, SVG Export Plug-In . SVG Version: 6.00 Build 0)  -->
<!DOCTYPE svg PUBLIC "-//W3C//DTD SVG 1.0//EN" "http://www.w3.org/TR/2001/REC-SVG-20010904/DTD/svg10.dtd">
<svg version="1.0" id="Capa_1" xmlns="http://www.w3.org/2000/svg" xmlns:xlink="http://www.w3.org/1999/xlink" x="0px" y="0px"
	 width="25px" height="25px" viewBox="0 0 25 25" enable-background="new 0 0 25 25" xml:space="preserve">
<path d="M12.069,2.602c0.234-0.136,0.625-0.136,0.867,0l7.1,4.164c0.233,0.136,0.233,0.361-0.007,0.497l-7.093,4.051
	c-0.242,0.136-0.633,0.136-0.867,0l-7.1-4.051c-0.24-0.136-0.24-0.361,0-0.497L12.069,2.602z M20.036,12.301l-2.959-1.725
	l-4.141,2.356c-0.242,0.136-0.633,0.136-0.867,0l-4.147-2.356l-2.952,1.725c-0.24,0.143-0.24,0.368,0,0.504l7.102,4.042
	c0.232,0.137,0.625,0.137,0.865,0l7.094-4.042C20.27,12.669,20.27,12.443,20.036,12.301z M20.036,17.857l-2.959-1.732l-4.141,2.364
	c-0.242,0.136-0.633,0.136-0.867,0l-4.147-2.364l-2.952,1.732c-0.24,0.136-0.24,0.36,0,0.496l7.102,4.045
	c0.232,0.135,0.625,0.135,0.865,0l7.094-4.045C20.27,18.219,20.27,17.993,20.036,17.857z"/>
</svg>
