<?xml version="1.0" encoding="utf-8"?>
<!-- Generator: Adobe Illustrator 21.1.0, SVG Export Plug-In . SVG Version: 6.00 Build 0)  -->
<svg version="1.1"
	 id="svg3305" inkscape:version="0.48.4 r9939" sodipodi:docname="customer-service.svg" xmlns:cc="http://creativecommons.org/ns#" xmlns:dc="http://purl.org/dc/elements/1.1/" xmlns:inkscape="http://www.inkscape.org/namespaces/inkscape" xmlns:rdf="http://www.w3.org/1999/02/22-rdf-syntax-ns#" xmlns:sodipodi="http://sodipodi.sourceforge.net/DTD/sodipodi-0.dtd" xmlns:svg="http://www.w3.org/2000/svg"
	 xmlns="http://www.w3.org/2000/svg" xmlns:xlink="http://www.w3.org/1999/xlink" x="0px" y="0px" viewBox="0 0 256 256"
	 style="enable-background:new 0 0 256 256;" xml:space="preserve">
<style type="text/css">
	.st0{fill:#FFFFFF;}
	.st1{fill:#FEC966;}
	.st2{fill:#80BDDB;}
	.st3{fill:#FAAD3F;}
</style>
<sodipodi:namedview  bordercolor="#666666" borderopacity="1" gridtolerance="10" guidetolerance="10" id="namedview3347" inkscape:current-layer="svg3305" inkscape:cx="267.25334" inkscape:cy="166.56571" inkscape:pageopacity="0" inkscape:pageshadow="2" inkscape:window-height="480" inkscape:window-maximized="0" inkscape:window-width="640" inkscape:window-x="2101" inkscape:window-y="168" inkscape:zoom="2.085965" objecttolerance="10" pagecolor="#ffffff" showgrid="false">
	</sodipodi:namedview>
<path id="path3309" inkscape:connector-curvature="0" d="M49.9,29.9c6.9-6.7,16.3-9.7,25.7-10.8c4.6-0.3,9.2,0,13.7,1.2
	c9.1,1.8,17.7,6.8,23.2,14.3c3,4.8,5,10.3,5.6,15.9c0.1,8.8,0,17.7,0,26.5c0.8,8.1,4.5,15.7,10,21.7c0.1-3.1-0.1-6.1,0-9.2
	c1.2-10.4,7.2-20.6,17-25c4.5-2.4,9.5-3.5,14.5-4c3.8,0,7.7-0.1,11.5,0c4,0.5,8.1,1.2,11.9,2.5c2.5,1.1,5.2,1.9,7.2,3.8
	c1.4,1.3,3,2.4,4.1,3.9c1.7,2.1,2.4,4.8,3.1,7.4c1.1,1.6,2.3,3.3,2.8,5.2c0.7,2.3,0.4,4.7,0.5,7c0,6.2,0,12.5,0,18.7
	c0,1.6,0.1,3.4-1.2,4.6c-2.9,3-5.8,5.9-8.8,8.8c-0.1-4.1,0-8.1,0-12.2c0-4.2-1-8.2-2.3-12.2c-0.8-2.2-1.8-4.4-3.6-5.9
	c-1.2-1-3.3-1-4.3,0.4c-1.7,2.2-2.5,5.1-4.9,6.7c-3.5,2.4-7.9,2.6-12,2.6c-8.3,0-16.7-1.3-24.4-4.5c0.4,2.3,0.9,4.6,0.8,7
	c0,2.2-1.4,4.2-1.5,6.4c-0.1,3.9,0.1,7.8-0.1,11.7c-2.6-2.4-5.1-4.9-7.7-7.4c-0.8-0.8-1.7-1.6-2.4-2.6c-0.5-1.2-0.4-2.4-0.4-3.7
	c0-0.7,0-1.3,0-2c-0.8,0-1.6,0-2.4,0c0.3,0.8,0.7,1.5,1,2.3c-2.2,0.5-4.8,0.5-6.4,2.3c-2.3,2.5-2.7,6.2-2.1,9.3
	c0.9,4.3,3.7,7.9,6.2,11.3c-1.8,0.7-3.6,1.4-5.4,2c-4.2-1.7-8.2-3.8-12.1-5.9c-2.6-1.8-5.1-3.9-7.9-5.5c-0.1,0.3-0.2,0.8-0.2,1
	c-0.4,0.1-1.2,0.2-1.6,0.3c0-3.1-0.1-6.2,0-9.2c2.2-4.8,4.8-9.6,5.4-14.8c0.9,0.8,1.9,2.6,3.3,1.7c2.1-2,2.1-5.5,1.2-8.1
	c-0.4-1.3-1.8-1.7-2.9-2.2c0.6-1.9,0.6-4,0.7-6c0.4-9.3-0.4-18.9-3.5-27.8c-1.3,3.2-2.6,6.7-5.4,9c-1.6,1.5-3.9,2.6-4.5,4.9
	c-0.6,5.6,1.4,11,3.8,16c-2.7-3.1-4.9-6.7-6-10.7c-0.7-2.6-0.6-5.2-0.6-7.8c-3.1,2.1-6.3,4.1-9.8,5.5c-4.3,1.9-9.2,2.6-13.1,5.4
	c-4.7,3.3-7.6,8.4-10.6,13.2c-1.2,1.8-2.7,3.4-3.8,5.4c-0.7,1.2,0.1,2.7,1.2,3.3c1.2,0.4,2.1-0.8,3.1-1.3c1,4.9,3,9.4,5.2,13.9
	c0.1,3.3-0.1,6.5,0,9.8c-0.3-0.2-0.9-0.5-1.2-0.7c-0.2-0.1-0.5-0.3-0.6-0.4c-2.6,1.3-4.8,3.2-7.1,4.9c-4.2,2.2-8.4,4.5-12.8,6.2
	c-4-1.6-8-3.3-11.3-6.1c-3.1-3-6.3-6-8.5-9.7c5.2-3,10.3-6.4,14-11.3c-4.7-0.2-9.4,0-14.1-0.1c2.1-1.2,4.1-2.4,6.2-3.5
	c4-2.2,7.8-4.9,11.6-7.4c1.1-0.7,2.4-1.4,2.7-2.8c0.4-2.1,0.7-4.2,0.7-6.3c0-11.7,0-23.4,0-35C40.2,43.7,43.8,35.5,49.9,29.9
	L49.9,29.9z"/>
<path id="path3311" inkscape:connector-curvature="0" class="st0" d="M69.1,31.1c6.2-2.2,13.2-2.1,19.4-0.2
	c5.1,2.1,9.9,5.3,13.2,9.8c4.1,5.3,6.1,12.2,5.6,18.9c-1.1-3.1-1.9-6.4-3.9-9.1c-4.4-6.3-12-9.6-19.5-10.4c-9.3-1-19.6,0.6-26.7,7.1
	c-3.5,3.1-5.3,7.6-6.6,12c-0.6-3.1,0-6.3,0.8-9.3C53.8,41.2,60.6,34,69.1,31.1z"/>
<path id="path3313" inkscape:connector-curvature="0" class="st1" d="M101.2,57.7c3.1,8.9,3.9,18.4,3.5,27.8c-0.1,2-0.2,4.1-0.7,6
	c-1.7,2.6-1.9,5.6-1.6,8.6c-0.6,5.3-3.2,10.1-5.4,14.8c-2.9,4.7-6.4,9.2-11.5,11.6c-3.8,1.8-8.4,2.1-12.3,0.4
	c-5.6-2.3-9.6-7.3-12.6-12.4c-2.2-4.4-4.2-9-5.2-13.9c0.1-2.5,0.3-5-0.5-7.4c3-4.7,5.9-9.9,10.6-13.2c3.9-2.8,8.8-3.5,13.1-5.4
	c3.5-1.5,6.7-3.4,9.8-5.5c0,2.6-0.1,5.3,0.6,7.8c1.1,4,3.3,7.6,6,10.7c-2.3-5-4.3-10.4-3.8-16c0.5-2.3,2.9-3.4,4.5-4.9
	C98.6,64.4,99.8,61,101.2,57.7L101.2,57.7z"/>
<path id="path3315" inkscape:connector-curvature="0" class="st2" d="M104,91.5c1.1,0.5,2.5,0.9,2.9,2.2c1,2.6,0.9,6.1-1.2,8.1
	c-1.3,0.9-2.4-0.9-3.3-1.7C102.1,97.1,102.3,94,104,91.5z"/>
<path id="path3317" inkscape:connector-curvature="0" class="st1" d="M180.3,92.8c1-1.3,3-1.4,4.3-0.4c1.8,1.5,2.8,3.7,3.6,5.9
	c1.3,3.9,2.3,8,2.3,12.2c0,4.1-0.1,8.1,0,12.2c2.9-2.9,5.9-5.9,8.8-8.8c1.3-1.2,1.2-3,1.2-4.6c2.5,0.6,5.6-0.4,7.6,1.6
	c1.8,1.4,3,3.5,3,5.8c0,2.8-0.1,5.7-1.4,8.2c-2.5,5.3-6.7,9.6-11,13.5c-1.1,1.1-2.6,1.8-3.2,3.3c-0.9,2.4-2.1,4.7-2.8,7.2
	c-0.5,1.6-1.4,3.2-2.4,4.6c-2.7,3.9-5.4,7.9-9.2,10.9c-3.8,3.1-8.4,5.5-13.3,6.2c-6.9,1.1-14.1-1.2-19.5-5.5c-4-3.2-7.4-7.1-10-11.6
	c-1.3-2.7-2.8-5.3-3.7-8.2c-0.7-1.8-1.1-3.9-2.7-5.2c-2.7-2.5-5.4-5-7.8-7.8c-2.5-3.5-5.3-7-6.2-11.3c-0.7-3.2-0.2-6.9,2.1-9.3
	c1.6-1.8,4.2-1.8,6.4-2.3c0.5-0.1,0.9-0.2,1.4-0.3c0,1.2-0.1,2.5,0.4,3.7c0.6,1,1.5,1.8,2.4,2.6c2.6,2.4,5.1,5,7.7,7.4
	c0.2-3.9-0.1-7.8,0.1-11.7c0-2.2,1.4-4.2,1.5-6.4c0-2.4-0.4-4.7-0.8-7c7.7,3.2,16.1,4.5,24.4,4.5c4.1,0,8.5-0.2,12-2.6
	C177.8,97.8,178.6,94.9,180.3,92.8L180.3,92.8z"/>
<path id="path3319" inkscape:connector-curvature="0" class="st2" d="M51.1,98.5c1.1-1.9,2.6-3.5,3.8-5.4c0.7,2.4,0.5,4.9,0.5,7.4
	c-1,0.5-1.9,1.7-3.1,1.3C51.2,101.2,50.4,99.7,51.1,98.5z"/>
<path id="path3321" inkscape:connector-curvature="0" class="st0" d="M125.5,107c0.8,0,1.6,0,2.4,0c0,0.7,0,1.3,0,2
	c-0.5,0.1-1,0.2-1.4,0.3C126.2,108.5,125.9,107.8,125.5,107z"/>
<path id="path3323" inkscape:connector-curvature="0" class="st3" d="M60.5,114.4c3,5.1,7,10.1,12.6,12.4c3.9,1.8,8.5,1.5,12.3-0.4
	c5.1-2.3,8.6-6.9,11.5-11.6c-0.1,3.1,0.1,6.2,0,9.2c0.1,10-5.5,20.6-15.1,24.3l-0.4,0c-1.6,0.1-3.3,0.2-4.9,0.1
	c-0.2,0-0.7,0-0.9-0.1c-9.7-3.7-15.2-14.3-15.2-24.3C60.4,120.9,60.6,117.7,60.5,114.4z"/>
<path id="path3325" inkscape:connector-curvature="0" class="st0" d="M51.5,128.1c2.3-1.8,4.5-3.6,7.1-4.9c0.2,0.1,0.5,0.3,0.6,0.4
	c0.3,5.2,1.3,10.4,3.7,15c1.8,3.3,4,6.3,6.5,9c1.6,1.8,4.1,0.7,6.2,0.9c0.2,0,0.7,0.1,0.9,0.1c-0.1,1.8-0.1,3.6-0.1,5.5
	c-1.8,0-3.6,0-5.4,0c0-1.5-0.1-3-0.1-4.5c-4.2,4.4-9.2,8.5-15.4,9.7c-2.8-7.2-4.3-14.9-5-22.7C50.4,133.7,50,130.6,51.5,128.1
	L51.5,128.1z"/>
<path id="path3327" inkscape:connector-curvature="0" class="st0" d="M98.8,122.8c2.8,1.6,5.2,3.7,7.9,5.5c0.8,2.9,0.7,6,0.4,9
	c-0.7,7.4-2.3,14.8-4.9,21.7c-6.2-1.1-11.3-5.1-15.5-9.7c3.3-4,6.9-7.9,8.9-12.7c1.8-4,2.4-8.5,2.9-12.8
	C98.7,123.6,98.8,123.1,98.8,122.8z"/>
<path id="path3329" inkscape:connector-curvature="0" class="st2" d="M59.2,123.5c0.3,0.2,0.9,0.5,1.2,0.7c0,10,5.5,20.6,15.2,24.3
	c-2-0.2-4.6,0.8-6.2-0.9c-2.6-2.7-4.8-5.8-6.5-9C60.6,133.9,59.5,128.7,59.2,123.5z"/>
<path id="path3331" inkscape:connector-curvature="0" sodipodi:nodetypes="ccccccccccccccccccccccccccccccccccccccccccc" d="
	M97,124.1c0.4-0.1,1.2-0.2,1.6-0.3c-0.5,4.4-1.1,8.8-2.9,12.8c-2,4.8-5.6,8.8-8.9,12.7c4.1,4.6,9.2,8.6,15.5,9.7
	c2.7-7,4.2-14.3,4.9-21.7c0.3-3,0.4-6.1-0.4-9c3.9,2.2,8,4.3,12.1,5.9c4.5,1.8,8.7,4.2,13.2,5.8c1.6,1.3,2,3.4,2.7,5.2
	c1,2.8,2.4,5.5,3.7,8.2c0,6.1,0,12.1,0,18.2c-0.4-0.8-0.8-1.5-1.2-2.3c-2.8,1.4-5.7,2.8-8,5c-1.6,1.5-1,3.9-0.9,5.8
	c-0.1-1.2-0.3-2.4-0.4-3.6c-8.4,3.3-16.9,6.4-25.4,9.6c-3.9,1.6-8.1,2.9-11.6,5.3c-1.7,1.2-3.3,2.6-4.8,4.1
	c-6.1-0.1-12.1,0.1-18.2-0.1c-3.9-0.4-7.8-0.2-11.7-0.7c-2.7-0.4-5.4-0.1-8.1-0.4c-15.2-1.7-30.6-3.7-44.7-10
	c-0.2-6.9,0.6-13.9,2.7-20.5c0.9-4.4,2.8-8.6,5.2-12.4c1.5-2.3,3.1-4.6,5.4-6.1c2-1.6,4.4-2.6,6.7-3.8c2.8-1.4,5.6-2.9,8.5-4
	c2.4-0.8,4.4-2.4,6.7-3.3c4.4-1.7,8.6-4,12.8-6.2c-1.5,2.5-1.2,5.6-1,8.4c0.7,7.7,2.2,15.4,5,22.7c6.1-1.2,11.1-5.3,15.4-9.7
	c0,1.5,0.1,3,0.1,4.5c1.8,0,3.6,0,5.4,0c0-1.8,0-3.6,0.1-5.5c1.6,0.1,3.3,0.1,4.9-0.1c0.1,1.8,0.1,3.7,0.1,5.5
	c1.7,0,3.9-0.1,5.6-0.1c0.2-1.8-0.3-4.7,0.5-5.6c-1.6,0-4.1,0.1-5.7,0.1C91.5,144.7,97.1,134.2,97,124.1L97,124.1z"/>
<path id="path3333" inkscape:connector-curvature="0" class="st0" d="M118.8,134.3c1.8-0.6,3.6-1.3,5.4-2c2.4,2.8,5.1,5.3,7.8,7.8
	C127.5,138.5,123.3,136.1,118.8,134.3z"/>
<path id="path3337" inkscape:connector-curvature="0" class="st3" d="M138.5,153.4c2.6,4.4,6,8.3,10,11.6c5.4,4.3,12.6,6.6,19.5,5.5
	c4.9-0.7,9.5-3.1,13.3-6.2c3.7-3,6.5-7,9.2-10.9c0.1,5.4,0,10.7,0,16.1c0,3.9-2.3,7.2-4,10.5c-1.3,2.4-2.4,5.1-4.6,6.9
	c-3.5,3-7.8,4.8-12,6.7c0.5,0.3,1.1,0.6,1.6,0.8c-4.7,1.1-9.7,1.3-14.4-0.1c0.6-0.2,1.2-0.4,1.8-0.6c-5.7-2.6-12.3-5.1-15.3-11
	c-1.9-3.6-3.7-7.3-5.3-11.1C138.5,165.6,138.5,159.5,138.5,153.4L138.5,153.4z"/>
<path id="path3339" inkscape:connector-curvature="0" class="st0" d="M76.5,159c1.7,0,3.3,0,5,0c0,1.8,0,3.7,0,5.5c-1.7,0-3.3,0-5,0
	C76.5,162.7,76.5,160.8,76.5,159z"/>
<path id="path3341" inkscape:connector-curvature="0" class="st0" d="M129.3,174.3c2.3-2.2,5.1-3.7,8-5c0.4,0.8,0.8,1.5,1.2,2.3
	c1.6,3.8,3.4,7.5,5.3,11.1c2.9,6,9.6,8.4,15.3,11c-0.6,0.2-1.2,0.4-1.8,0.6c-3.3,0.9-6.2,2.9-8.9,5.1c-3.9,3.2-7.1,7.3-9.9,11.4
	c-4.6-9.7-8.6-19.9-10.1-30.7C128.3,178.2,127.7,175.8,129.3,174.3L129.3,174.3z"/>
<path id="path3343" inkscape:connector-curvature="0" class="st0" d="M76.5,174.5c1.7,0,3.3,0,5,0c0,1.8,0,3.7,0,5.5
	c-1.7,0-3.3,0-5,0C76.5,178.2,76.5,176.3,76.5,174.5z"/>
<path id="path3345" inkscape:connector-curvature="0" d="M102.6,186.1c8.5-3.2,16.9-6.3,25.4-9.6c0.1,1.2,0.3,2.4,0.4,3.6
	c1.5,10.7,5.5,20.9,10.1,30.7c2.8-4.2,6-8.2,9.9-11.4c2.6-2.2,5.5-4.1,8.9-5.1c4.7,1.5,9.7,1.3,14.4,0.1c1,0,2,0.5,2.9,0.9
	c6.7,3.4,11.8,9.3,15.9,15.4c3.8-7.8,6.9-16,9-24.4c0.8-3.3,1.2-6.6,1.4-10c3.1,1.1,6.3,2.1,9.3,3.5c3.5,0.9,6.7,2.9,10.3,3.7
	c5.4,2.2,11,4,16.2,6.8c1.7,1.1,3.3,2.4,4.9,3.6c1.3,1.6,2.6,3.1,3.8,4.7c1.2,1.6,1.8,3.5,2.8,5.1c1.7,2.7,2.1,5.9,3.1,8.9
	c1,4.3,1.2,8.8,1.8,13.2c-2.8,2-6.3,2.6-9.6,3.6c-5.1,1-10.2,2.6-15.5,3.1c-3.5,0.6-7,1.5-10.6,1.5c-2,0.1-4,0.7-6.1,0.9
	c-3,0.1-5.9,0.6-8.9,0.7c-3.5,0.9-7.2,0-10.7,0.8c-2.9,0.4-5.9-0.1-8.8,0.2c-1.2,0.2-2.3,0.5-3.5,0.4c-10.5,0-21,0-31.5,0
	c-0.9,0-1.9,0-2.8-0.2c-3.2-0.7-6.4,0-9.6-0.4c-3.2-0.8-6.5,0-9.7-0.8c-4.5,0-8.9-1-13.4-1.2c-4.7-0.8-9.5-1.1-14.2-2.2
	c-3.1-0.3-6.2-0.9-9.2-1.8c-4.5-0.8-8.9-2.4-13.3-3.9c0.6-3.4,0.2-6.8,0.9-10.1c1.7-7.4,3.8-15.3,9.3-20.8c1.5-1.5,3-2.9,4.8-4.1
	C94.5,189,98.6,187.7,102.6,186.1L102.6,186.1z"/>
<rect id="rect3449" x="86.5" y="148.3" class="st0" width="1.2" height="1.4"/>
</svg>
