<?xml version="1.0" encoding="utf-8"?>
<!-- Generator: Adobe Illustrator 16.0.0, SVG Export Plug-In . SVG Version: 6.00 Build 0)  -->
<!DOCTYPE svg PUBLIC "-//W3C//DTD SVG 1.0//EN" "http://www.w3.org/TR/2001/REC-SVG-20010904/DTD/svg10.dtd">
<svg version="1.0" id="Capa_1" xmlns="http://www.w3.org/2000/svg" xmlns:xlink="http://www.w3.org/1999/xlink" x="0px" y="0px"
	 width="25px" height="25px" viewBox="0 0 25 25" enable-background="new 0 0 25 25" xml:space="preserve">
<g>
	<g>
		<g>
			<polygon points="20,17.5 9.591,17.5 5.216,7.5 2.5,7.5 2.5,6.25 6.034,6.25 10.409,16.25 20,16.25 			"/>
		</g>
		<path d="M13.75,20.625c0,1.035-0.84,1.875-1.875,1.875C10.839,22.5,10,21.66,10,20.625s0.839-1.875,1.875-1.875
			C12.91,18.75,13.75,19.59,13.75,20.625z"/>
		<path d="M20,20.625c0,1.035-0.84,1.875-1.875,1.875s-1.875-0.84-1.875-1.875s0.84-1.875,1.875-1.875S20,19.59,20,20.625z"/>
		<g>
			<path d="M21.219,3.781c-1.707-1.708-4.479-1.708-6.188,0s-1.709,4.479,0,6.188c1.707,1.709,4.479,1.708,6.188,0
				S22.927,5.489,21.219,3.781z M19.45,9.085l-1.325-1.326l-1.326,1.326l-0.884-0.884l1.326-1.326l-1.326-1.326l0.884-0.884
				l1.326,1.326l1.326-1.326l0.884,0.884l-1.326,1.326l1.326,1.326L19.45,9.085z"/>
		</g>
		<path d="M18.125,12.5c-2.441,0-4.503-1.572-5.279-3.75H8.75l2.5,6.25H20l1.443-3.606C20.512,12.08,19.369,12.5,18.125,12.5z"/>
	</g>
</g>
</svg>
