<?xml version="1.0" encoding="utf-8"?>
<!-- Generator: Adobe Illustrator 16.0.0, SVG Export Plug-In . SVG Version: 6.00 Build 0)  -->
<!DOCTYPE svg PUBLIC "-//W3C//DTD SVG 1.0//EN" "http://www.w3.org/TR/2001/REC-SVG-20010904/DTD/svg10.dtd">
<svg version="1.0" id="Capa_1" xmlns="http://www.w3.org/2000/svg" xmlns:xlink="http://www.w3.org/1999/xlink" x="0px" y="0px"
	 width="25px" height="25px" viewBox="0 0 25 25" enable-background="new 0 0 25 25" xml:space="preserve">
<g>
	<path d="M12.816,2.5c1.707,0.872,3.417,1.745,5.126,2.617c0.944,0.485,1.891,0.973,2.823,1.483c0.172,0.094,0.37,0.292,0.388,0.461
		c0.014,0.125-0.216,0.329-0.382,0.416c-2.456,1.295-4.921,2.574-7.381,3.865c-0.598,0.313-1.182,0.313-1.776,0.002
		c-2.459-1.288-4.924-2.571-7.381-3.867C4.07,7.389,3.841,7.186,3.853,7.061C3.869,6.894,4.066,6.69,4.238,6.6
		c2.442-1.292,4.892-2.572,7.344-3.84c0.197-0.102,0.406-0.174,0.609-0.259L12.816,2.5L12.816,2.5z"/>
	<path d="M13.7,22.5c-0.066-0.203-0.192-0.404-0.192-0.607c-0.015-2.561-0.009-5.125-0.009-7.685c0-0.608,0.268-1.05,0.803-1.327
		c2.203-1.146,4.406-2.288,6.611-3.428c0.563-0.29,0.855-0.117,0.855,0.51c0.006,2.37,0.006,4.739,0.001,7.107
		c0,0.647-0.28,1.134-0.845,1.457c-2.244,1.287-4.487,2.578-6.73,3.871c-0.048,0.031-0.093,0.066-0.138,0.102H13.7z"/>
	<path d="M10.949,22.5c-2.187-1.268-4.356-2.561-6.565-3.786c-0.83-0.46-1.172-1.065-1.156-2c0.038-2.205,0.013-4.415,0.013-6.62
		c0-0.807,0.25-0.953,0.974-0.578c2.142,1.104,4.28,2.211,6.421,3.319c0.578,0.297,0.88,0.752,0.878,1.418
		c-0.007,2.531,0.002,5.065-0.011,7.599c0,0.215-0.129,0.431-0.196,0.648H10.949z"/>
</g>
</svg>
