<?xml version="1.0" encoding="utf-8"?>
<!-- Generator: Adobe Illustrator 21.1.0, SVG Export Plug-In . SVG Version: 6.00 Build 0)  -->
<svg version="1.1" id="Layer_1" xmlns="http://www.w3.org/2000/svg" xmlns:xlink="http://www.w3.org/1999/xlink" x="0px" y="0px"
	 viewBox="0 0 512 512" style="enable-background:new 0 0 512 512;" xml:space="preserve">
<style type="text/css">
	.st0{fill:#FFFFFF;}
</style>
<polygon points="104,198.4 93.5,186.4 258.8,41.3 418.4,186.5 407.7,198.3 258.6,62.8 "/>
<circle cx="258.7" cy="64.5" r="37.5"/>
<rect y="177.2" width="512" height="307.7"/>
<g>
	<path class="st0" d="M86,369.3c8,4.1,20.2,8.2,32.9,8.2c13.6,0,20.8-5.6,20.8-14.2c0-8.2-6.2-12.8-22-18.5
		c-21.8-7.6-36-19.7-36-38.7c0-22.4,18.7-39.5,49.6-39.5c14.8,0,25.7,3.1,33.5,6.6l-6.6,23.9c-5.3-2.5-14.6-6.2-27.4-6.2
		s-19.1,5.8-19.1,12.6c0,8.4,7.4,12.1,24.3,18.5c23.2,8.6,34.1,20.6,34.1,39.1c0,22-16.9,40.7-52.9,40.7c-15,0-29.8-3.9-37.2-8
		L86,369.3z"/>
	<path class="st0" d="M244.8,399.9l-1.8-9.5h-0.6c-6.2,7.6-16,11.7-27.2,11.7c-19.3,0-30.8-14-30.8-29.2c0-24.7,22.2-36.6,55.8-36.4
		v-1.4c0-5.1-2.7-12.3-17.3-12.3c-9.7,0-20,3.3-26.3,7.2l-5.4-19.1c6.6-3.7,19.7-8.4,37-8.4c31.7,0,41.8,18.7,41.8,41.1v33.1
		c0,9.2,0.4,17.9,1.4,23.2L244.8,399.9L244.8,399.9L244.8,399.9z M241.3,354.9c-15.6-0.2-27.6,3.5-27.6,15c0,7.6,5.1,11.3,11.7,11.3
		c7.4,0,13.4-4.9,15.4-10.9c0.4-1.6,0.6-3.3,0.6-5.1L241.3,354.9L241.3,354.9z"/>
	<path class="st0" d="M293.5,261.7H323v138.2h-29.6V261.7z"/>
	<path class="st0" d="M369.7,361.7c1,12.3,13,18.1,26.8,18.1c10.1,0,18.3-1.4,26.3-3.9l3.9,20c-9.7,3.9-21.6,5.8-34.4,5.8
		c-32.3,0-50.8-18.7-50.8-48.5c0-24.1,15-50.8,48.1-50.8c30.8,0,42.4,23.9,42.4,47.5c0,5.1-0.6,9.5-1,11.7L369.7,361.7L369.7,361.7z
		 M404.6,341.5c0-7.2-3.1-19.3-16.7-19.3c-12.5,0-17.5,11.3-18.3,19.3H404.6z"/>
</g>
</svg>
